# xmcd
#
# Track frame offsets: 
#        182
#        13305
#        31217
#        45962
#        59532
#        75092
#        90750
#        117385
#        135837
#        153190
#        167030
#        178802
#        199087
#        217777
#        234972
#        246112
#        261990
#        280460
#        290925
#
# Disc length: 4085 seconds
#
# Revision: 6
# Processed by: cddbd v1.5.2PL0 Copyright (c) Steve Scherf et al.
# Submitted via: ExactAudioCopy v1.3
#
DISCID=fa0ff313
DTITLE=Nina Simone - The Cool Pix Years
DYEAR=1992
DGENRE=Vocal
TTITLE0=Children Go Where I Send You (1960)
TTITLE1=It Might As Well Be Spring (1960)
TTITLE2=Willow Weep for Me (1960)
TTITLE3=The Other Woman (1960)
TTITLE4=Fine and Mellow (1960)
TTITLE5=Wild is the Wind (1960)
TTITLE6=You Can Have Him (1960)
TTITLE7=(I Loves You) Porgy (1960)
TTITLE8=Forbidden Fruit (1961)
TTITLE9=Gin House Blues (1961)
TTITLE10=Work Song (1961)
TTITLE11=House of the Rising Sun (1961)
TTITLE12=I Got It Bad (And That Ain't Good) (1962)
TTITLE13=Solitude (1962)
TTITLE14=It Don't Mean a Thing (1962)
TTITLE15=The Twelfth of Never (1963)
TTITLE16=Baubles, Bangles and Beads (previously unissued)
TTITLE17=Gimme A Pigfoot (previously unissued)
TTITLE18=Everytime We Say Goodbye
EXTD=YEAR: 1992
EXTT0=
EXTT1=
EXTT2=
EXTT3=
EXTT4=
EXTT5=
EXTT6=
EXTT7=
EXTT8=
EXTT9=
EXTT10=
EXTT11=
EXTT12=
EXTT13=
EXTT14=
EXTT15=
EXTT16=
EXTT17=
EXTT18=
PLAYORDER=
